<svg width="25" height="25" viewBox="0 0 25 25" fill="none" xmlns="http://www.w3.org/2000/svg">
<path d="M12.781 13.0667C13.3333 13.0667 13.781 12.619 13.781 12.0667C13.781 11.5144 13.3333 11.0667 12.781 11.0667C12.2287 11.0667 11.781 11.5144 11.781 12.0667C11.781 12.619 12.2287 13.0667 12.781 13.0667Z" stroke="black" stroke-width="2" stroke-linecap="round" stroke-linejoin="round"/>
<path d="M12.781 6.06671C13.3333 6.06671 13.781 5.619 13.781 5.06671C13.781 4.51443 13.3333 4.06671 12.781 4.06671C12.2287 4.06671 11.781 4.51443 11.781 5.06671C11.781 5.619 12.2287 6.06671 12.781 6.06671Z" stroke="black" stroke-width="2" stroke-linecap="round" stroke-linejoin="round"/>
<path d="M12.781 20.0667C13.3333 20.0667 13.781 19.619 13.781 19.0667C13.781 18.5144 13.3333 18.0667 12.781 18.0667C12.2287 18.0667 11.781 18.5144 11.781 19.0667C11.781 19.619 12.2287 20.0667 12.781 20.0667Z" stroke="black" stroke-width="2" stroke-linecap="round" stroke-linejoin="round"/>
</svg>
